<?xml version="1.0" standalone="no"?>
<!DOCTYPE svg PUBLIC "-//W3C//DTD SVG 20010904//EN"
 "http://www.w3.org/TR/2001/REC-SVG-20010904/DTD/svg10.dtd">
<svg version="1.0" xmlns="http://www.w3.org/2000/svg"
 width="840.000000pt" height="736.000000pt" viewBox="0 0 840.000000 736.000000"
 preserveAspectRatio="xMidYMid meet">

<g transform="translate(0.000000,736.000000) scale(0.100000,-0.100000)"
fill="#000000" stroke="none">
<path d="M4398 7257 c-142 -102 -546 -396 -808 -587 -146 -106 -380 -276 -520
-378 -140 -102 -298 -216 -350 -255 -52 -38 -113 -83 -135 -99 -22 -16 -83
-60 -135 -98 -52 -38 -113 -82 -135 -98 -22 -16 -83 -60 -135 -99 -52 -38
-144 -105 -203 -148 -59 -43 -110 -82 -113 -87 -5 -7 44 -161 276 -873 43
-132 115 -355 160 -495 45 -140 102 -313 125 -385 24 -71 71 -218 105 -325 34
-107 82 -253 106 -325 23 -71 80 -245 125 -385 45 -140 86 -265 92 -277 l10
-23 1434 0 1433 0 9 23 c5 12 37 110 71 217 34 107 81 254 105 325 24 72 70
213 103 315 33 102 106 327 162 500 133 412 187 579 254 783 31 92 59 185 62
205 6 37 4 39 -48 75 -29 20 -73 52 -98 70 -25 19 -113 83 -196 143 -83 60
-308 223 -500 363 -192 140 -497 362 -679 494 -181 132 -365 266 -408 298 -42
33 -84 59 -93 59 -14 0 -268 -179 -559 -395 -122 -90 -218 -159 -241 -175 -13
-8 -78 -55 -144 -105 -67 -49 -151 -110 -186 -135 -188 -133 -416 -304 -420
-315 -5 -12 29 -130 99 -345 19 -58 69 -213 111 -345 43 -132 88 -271 101
-310 13 -38 76 -232 140 -430 64 -198 121 -372 127 -388 l10 -27 784 2 784 3
34 100 c19 55 64 195 101 310 37 116 89 275 115 355 58 174 120 370 120 380 0
7 -34 33 -211 160 -35 25 -102 74 -151 110 -48 36 -129 94 -179 130 -50 36
-103 74 -117 86 -92 71 -154 84 -227 46 -45 -23 -114 -113 -134 -175 -17 -51
-6 -106 30 -150 16 -19 95 -84 176 -143 260 -189 294 -215 300 -230 3 -8 -15
-74 -40 -147 -25 -72 -61 -184 -82 -247 -20 -63 -43 -125 -51 -137 l-14 -23
-451 0 c-441 0 -489 3 -489 32 0 6 -46 151 -101 322 -56 171 -126 388 -156
481 -30 94 -70 216 -89 272 -19 56 -34 111 -34 122 0 14 33 45 113 104 98 73
534 390 668 487 27 19 94 68 149 108 55 39 107 72 115 72 9 0 61 -33 116 -72
55 -40 113 -82 129 -93 28 -20 132 -95 460 -335 91 -67 182 -133 203 -148 20
-15 65 -48 100 -73 34 -25 160 -117 281 -205 120 -87 221 -165 223 -172 7 -17
-2 -48 -192 -632 -67 -207 -147 -453 -220 -680 -80 -248 -145 -442 -156 -462
-9 -17 -73 -18 -1124 -18 l-1115 0 -13 23 c-8 12 -44 117 -82 232 -106 331
-173 538 -225 695 -27 80 -74 226 -106 325 -31 99 -78 245 -104 325 -257 785
-281 861 -273 875 8 13 97 81 315 240 45 33 103 76 130 95 26 19 91 67 144
105 53 39 136 99 185 135 48 36 172 126 274 200 103 74 243 177 313 228 70 51
143 104 162 117 19 14 58 42 87 62 28 21 138 101 245 179 106 77 205 148 219
157 25 17 27 16 95 -31 38 -26 121 -86 184 -133 119 -88 320 -235 514 -374 61
-45 320 -233 576 -420 256 -186 614 -446 795 -578 427 -310 435 -316 435 -327
0 -9 -39 -130 -210 -655 -49 -148 -139 -425 -200 -615 -61 -190 -133 -412
-160 -495 -27 -82 -80 -247 -118 -365 -199 -615 -286 -876 -295 -887 -7 -10
-374 -13 -1773 -13 l-1764 0 -14 22 c-7 13 -30 73 -49 133 -38 118 -104 320
-190 585 -30 91 -87 266 -127 390 -40 124 -87 270 -105 325 -18 55 -65 201
-105 325 -40 124 -87 270 -105 325 -19 55 -83 255 -145 445 -105 325 -162 500
-250 770 -80 243 -120 372 -120 390 0 11 36 44 98 89 53 38 135 98 182 132 47
34 110 81 141 103 73 53 355 259 428 313 31 23 97 70 146 105 50 36 215 155
367 266 238 175 279 208 297 245 12 24 21 57 21 73 -1 70 -88 200 -157 234
-73 35 -121 22 -234 -62 -104 -77 -284 -208 -327 -239 -37 -25 -491 -356 -607
-441 -129 -95 -307 -225 -447 -326 -40 -29 -107 -78 -148 -109 -41 -30 -119
-86 -173 -124 -53 -39 -97 -77 -97 -85 0 -16 20 -83 84 -279 24 -71 57 -173
74 -225 38 -119 177 -547 241 -745 58 -175 118 -360 271 -835 114 -352 171
-528 266 -820 64 -195 120 -369 199 -615 32 -99 104 -319 160 -490 l101 -310
2088 0 2088 0 28 80 c16 44 78 235 140 425 232 718 313 969 355 1095 24 72 57
175 75 230 42 136 350 1086 395 1220 51 153 185 573 185 582 0 6 -30 32 -67
58 -38 25 -84 59 -104 73 -20 15 -83 61 -139 102 -56 41 -120 88 -143 104 -23
17 -163 118 -312 226 -148 108 -421 306 -605 440 -184 134 -384 280 -445 325
-60 44 -126 92 -145 105 -19 13 -87 62 -150 109 -63 46 -149 109 -191 140 -42
31 -108 78 -145 105 -38 28 -100 73 -139 101 -38 29 -143 105 -233 171 -90 65
-180 131 -200 146 -71 52 -64 52 -144 -5z m189 -95 c43 -32 170 -125 283 -207
113 -82 234 -170 270 -196 82 -60 514 -375 770 -561 340 -247 852 -619 945
-688 93 -68 149 -109 440 -320 94 -68 174 -127 178 -131 5 -4 -32 -135 -83
-290 -85 -265 -227 -703 -391 -1209 -39 -118 -79 -240 -89 -270 -19 -58 -164
-505 -345 -1065 -176 -545 -226 -695 -234 -695 -5 0 -30 17 -57 38 l-49 37
-1925 2 c-1059 2 -1931 3 -1938 3 -17 0 -15 -4 -142 390 -61 190 -117 363
-125 385 -7 22 -61 189 -120 370 -58 182 -137 425 -175 540 -37 116 -88 273
-113 350 -103 318 -279 864 -297 915 -10 30 -59 183 -110 340 -50 157 -125
386 -166 510 -41 124 -74 230 -74 235 0 5 -12 21 -27 37 -33 35 -34 34 126
150 69 51 209 153 311 227 102 74 241 176 310 226 116 85 579 422 862 628 67
48 135 104 153 124 30 35 32 36 68 24 53 -18 87 -63 87 -116 0 -35 -5 -48 -26
-64 -15 -12 -33 -21 -42 -21 -8 0 -63 -35 -121 -79 -58 -43 -248 -181 -421
-306 -173 -126 -331 -241 -350 -255 -19 -15 -189 -139 -376 -274 -188 -136
-356 -260 -374 -275 l-33 -27 36 -35 c29 -28 42 -55 72 -149 20 -63 81 -250
135 -415 54 -165 141 -435 195 -600 53 -165 103 -318 110 -340 8 -22 55 -168
105 -325 95 -295 204 -633 245 -755 25 -76 205 -630 280 -865 26 -80 60 -185
76 -233 16 -49 29 -98 29 -111 0 -12 5 -27 12 -34 9 -9 428 -12 1822 -12
l1811 0 40 -25 c65 -40 48 -70 158 270 31 94 103 319 162 500 59 182 135 418
170 525 35 107 84 258 109 335 25 77 82 253 126 390 123 376 194 596 240 740
23 72 66 203 96 293 29 89 51 168 48 175 -3 6 -17 21 -31 31 -87 64 -1407
1024 -1598 1163 -126 92 -320 233 -430 313 -579 423 -691 503 -706 507 -12 4
-20 -5 -29 -31 -12 -37 -6 -32 -474 -372 -61 -44 -379 -276 -706 -514 -327
-239 -658 -479 -735 -535 -279 -201 -304 -220 -304 -233 -1 -7 12 -24 28 -38
32 -27 38 -44 266 -749 58 -181 117 -361 129 -400 21 -63 117 -356 276 -850
32 -99 84 -256 114 -350 30 -93 59 -186 64 -205 l8 -35 1171 -5 1170 -5 39
-27 c21 -15 41 -24 45 -20 4 4 24 59 44 122 20 63 43 133 50 155 8 22 60 182
115 355 56 173 110 340 120 370 10 30 64 197 120 370 56 173 124 383 151 465
27 83 49 158 49 167 0 16 -135 116 -1105 820 -110 79 -290 211 -400 291 -110
81 -205 147 -210 147 -6 0 -17 -16 -24 -35 -10 -29 -50 -62 -228 -192 -301
-221 -347 -254 -639 -466 -142 -103 -270 -196 -284 -207 l-25 -19 37 -38 c39
-41 22 6 267 -748 141 -435 179 -555 183 -580 3 -20 13 -20 518 -25 l515 -5
47 -28 c26 -15 49 -24 51 -20 2 5 11 31 20 58 9 28 63 196 121 375 58 179 106
329 106 333 0 7 -54 48 -260 197 -281 203 -298 217 -310 254 -19 59 22 106 92
106 41 0 52 -7 403 -264 83 -60 178 -129 212 -153 35 -25 65 -48 68 -54 6 -8
-73 -259 -246 -784 -38 -116 -69 -215 -69 -221 0 -5 -5 -15 -11 -21 -14 -14
-53 3 -83 36 -19 21 -22 21 -651 21 -490 0 -635 3 -646 13 -8 6 -45 104 -81
217 -37 113 -117 360 -178 550 -61 190 -144 444 -182 565 -47 144 -79 229 -95
246 -12 14 -23 30 -23 36 0 9 276 213 885 655 467 339 459 333 483 378 12 25
28 45 35 44 12 -1 99 -63 462 -329 99 -73 284 -207 410 -298 127 -91 235 -170
240 -174 6 -5 53 -39 105 -77 52 -38 120 -88 150 -111 30 -22 65 -47 77 -55
127 -85 473 -347 473 -358 0 -8 -45 -152 -99 -321 -55 -168 -149 -459 -209
-646 -61 -187 -167 -515 -237 -730 -70 -214 -138 -426 -152 -470 -34 -111 -39
-114 -97 -71 l-46 36 -1278 0 c-1008 0 -1281 3 -1294 13 -8 6 -29 55 -46 107
-17 52 -85 262 -150 465 -66 204 -166 512 -222 685 -56 173 -135 416 -175 540
-41 124 -121 374 -180 555 -138 430 -144 445 -173 478 -16 16 -22 31 -16 36
11 10 342 252 1234 901 366 266 706 513 755 550 50 36 115 84 145 105 222 159
276 204 294 244 11 22 23 41 27 41 4 0 43 -26 86 -58z"/>
<path d="M5842 1134 l-93 -104 69 0 70 0 56 63 56 62 56 -62 56 -63 61 0 62 0
91 103 92 102 -66 3 -66 3 -56 -62 -55 -62 -57 62 -57 61 -63 -1 -63 0 -93
-105z"/>
<path d="M1040 625 l0 -335 301 2 300 3 75 159 c41 87 74 163 74 169 0 5 -46
83 -102 173 l-103 164 -272 0 -273 0 0 -335z m478 121 c39 -62 72 -117 72
-121 0 -4 -33 -59 -72 -121 l-73 -114 -102 0 -103 0 0 235 0 235 103 0 102 0
73 -114z"/>
<path d="M1870 625 l0 -335 100 0 100 0 0 335 0 335 -100 0 -100 0 0 -335z"/>
<path d="M2150 626 l0 -336 100 0 100 0 0 190 c0 105 2 190 5 190 2 0 50 -29
105 -65 55 -36 103 -65 105 -65 2 0 50 29 105 65 55 36 103 65 105 65 3 0 5
-85 5 -190 l0 -190 100 0 100 0 0 336 c0 265 -3 334 -12 328 -7 -4 -96 -62
-198 -128 -102 -66 -194 -120 -205 -120 -11 0 -103 54 -205 120 -102 66 -191
124 -197 128 -10 6 -13 -63 -13 -328z"/>
<path d="M3207 915 l37 -45 228 0 228 0 0 -95 0 -95 -235 0 -235 0 0 -45 0
-45 235 0 235 0 0 -100 0 -100 -224 0 -224 0 -42 -50 -42 -50 376 0 376 0 0
335 0 335 -375 0 -376 0 38 -45z"/>
<path d="M4030 625 l0 -335 105 0 105 0 2 180 3 179 210 -150 c116 -83 229
-164 253 -181 l42 -29 0 336 0 335 -100 0 -100 0 -2 -178 -3 -179 -253 179
c-139 98 -255 178 -257 178 -3 0 -5 -151 -5 -335z"/>
<path d="M4906 906 l-46 -54 0 -136 0 -136 265 0 265 0 0 -78 c0 -117 12 -112
-274 -112 l-238 0 44 -50 43 -49 249 -1 250 0 78 51 79 52 -3 141 -3 141 -267
3 -268 2 0 68 c0 59 3 72 23 90 22 21 32 22 215 22 l193 0 32 36 c60 69 81 64
-271 64 l-320 0 -46 -54z"/>
<path d="M5700 625 l0 -335 110 0 110 0 0 140 0 140 155 0 155 0 0 -140 0
-140 110 0 110 0 0 335 0 335 -375 0 -375 0 0 -335z m530 145 l0 -90 -155 0
-155 0 0 90 0 90 155 0 155 0 0 -90z"/>
<path d="M6600 717 l0 -244 116 -91 116 -92 264 0 264 0 0 335 0 335 -380 0
-380 0 0 -243z m560 -92 l0 -235 -124 0 -124 0 -56 64 -56 64 0 171 0 171 180
0 180 0 0 -235z"/>
</g>
</svg>
